<?xml version="1.0" encoding="UTF-8"?>
<svg width="60em" height="306.41mm" 
version="1.1" viewBox="0 0 1724.2858 1085.7142" 
xmlns="http://www.w3.org/2000/svg">
 <defs>
  <linearGradient id="a" x1="300.04" x2="233.98" y1="851.27" y2="816.54" gradientUnits="userSpaceOnUse">
   <stop stop-color="#fff" offset="0"/>
   <stop stop-color="#fff" stop-opacity="0" offset="1"/>
  </linearGradient>
 </defs>
 <g transform="translate(547.14 -89.505)">
 
  <path d="m536.73 382.08-125.05 266.51-54.24-54.24-121.22-4.0391-32.326 22.223 12.094 12.094-122.71-70.85 144.5 144.5l-16.424 14.264 462.68 462.68h493.12v-152.72l-640.41-640.41z" fill-rule="evenodd" opacity=".1"/>
  <path d="m221.34 712.54 136.09-118.19-121.22-4.0406-32.325 22.223z" fill="#999" fill-rule="evenodd"/>
  <path d="m536.73 382.08-157.92 336.55-285.54-164.86z" fill="#f2f2f2"/>
  <path d="m536.73 382.09-371.72 213.11 56.34 117.34v-84.816l315.38-245.64z" fill="#ccc"/>
  <g fill-rule="evenodd" shape-rendering="auto">
   <path d="m257.19 816.74-0.0781 3.7988 0.10547 2e-3 2.3477 0.18946 2.3262 0.32421 2.3027 0.44922 0.0117 4e-3 0.0469 8e-3 0.16406-0.83984 0.72266-2.8516-0.0547-0.0137-0.0488-0.0137-0.0527-0.01-2.4219-0.47461-0.0527-0.0117-0.0527-6e-3 -2.4394-0.33789-0.0527-8e-3 -0.0566-6e-3 -2.4551-0.19532-0.0566-4e-3 -0.0566-2e-3 -0.14843-2e-3zm-15.66 2.293-2.1074 0.79883-0.0586 0.0234-0.0566 0.0254-2.4062 1.0996-0.0566 0.0254-0.0547 0.0293-2.3789 1.2812 1.8027 3.3457 2.3125-1.248 2.3125-1.0566 2.0391-0.77149-1.3477-3.5527zm38.193 4.6113-1.9668 3.252 1.8828 1.1387 2 1.334h2e-3l1.9785 1.4512 0.01 8e-3 0.21289 0.16992 2.3828-2.9609-0.22265-0.17774-0.0332-0.0273-0.0351-0.0234-2.0449-1.502-0.0352-0.0274-0.0352-0.0215-2.1055-1.4082-0.0351-0.0234-0.0371-0.0234-1.918-1.1582zm17.51 15.52-3.0664 2.2461 1.3555 1.8516 1.3496 2.0254 1.2383 2.0547 0.0117 0.0215 0.0918 0.16601 3.3418-1.8086-0.10156-0.1875-0.0215-0.0371-0.0234-0.0391-1.3008-2.1621-0.0215-0.0371-0.0234-0.0371-1.4043-2.1074-0.0234-0.0332-0.0254-0.0352-1.377-1.8809zm10.174 21.035-3.6777 0.96289 0.35351 1.3418 0.01 0.0371 4e-3 0.0195 0.40234 1.7598 4e-3 0.0195 0.01 0.0371 0.35547 1.8184 2e-3 2e-3 0.29297 1.7598 0.0586 0.41797 3.7637-0.50977-0.0586-0.41797-4e-3 -0.0293-4e-3 -0.0273-0.31054-1.875-4e-3 -0.0273-8e-3 -0.0293-0.36914-1.875-6e-3 -0.0293-6e-3 -0.0273-0.42969-1.873-6e-3 -0.0273-6e-3 -0.0293-0.36719-1.3984z" color="#000000" color-rendering="auto" fill="url(#a)" image-rendering="auto" solid-color="#000000" style="block-progression:tb;isolation:auto;mix-blend-mode:normal;text-decoration-color:#000000;text-decoration-line:none;text-decoration-style:solid;text-indent:0;text-transform:none;white-space:normal"/>
   <path d="m189.09 719.7-0.83984 0.45508-0.0195 0.01-0.0176 0.01-2.6426 1.502-0.0176 0.0117-0.0176 0.0117-2.6055 1.5566-0.0176 0.0117-0.0176 0.01-0.48242 0.30273 2.0215 3.2168 0.44531-0.2793 8e-3 -6e-3 0.0273-0.0156 2.5703-1.5371 2.5703-1.4609 0.0352-0.0195 0.80664-0.43555-1.8066-3.3438zm-19.316 12.67-1.8633 1.4668-0.0137 0.0137-0.0156 0.0117-2.3281 1.9141-0.0156 0.0117-0.0156 0.0137-1.6797 1.4434 2.4746 2.8828 1.6504-1.418 0.0293-0.0234 2.2656-1.8652 0.0137-0.01 0.0176-0.0137 1.832-1.4414-2.3516-2.9863zm-17.016 15.553-0.41797 0.4414-0.0137 0.0156-0.0137 0.0156-2.0137 2.2168-0.0137 0.0156-0.0117 0.0137-1.9648 2.2598-0.0137 0.0156-0.0117 0.0156-0.64063 0.76758 2.916 2.4336 0.64258-0.76758 1.9121-2.1992 6e-3 -6e-3 0.0215-0.0254 1.959-2.1602 0.0254-0.0293 0.39257-0.41211-2.7598-2.6113zm-14.377 18.07-0.95508 1.4199-0.01 0.0176-0.0117 0.0156-1.6074 2.5058-0.01 0.0176-0.0117 0.0176-1.5176 2.4805 3.2402 1.9844 1.5176-2.4805 1.5644-2.4395 8e-3 -0.0117 0.0137-0.0215 0.93359-1.3906-3.1543-2.1152zm-11.322 20.129-1.0977 2.4414-8e-3 0.0176-8e-3 0.0215-1.1543 2.7266-0.01 0.0195-6e-3 0.0195-0.72461 1.8203 3.5293 1.4043 0.71094-1.7812v-2e-3l0.0137-0.0371 1.1406-2.6895 1.0781-2.4062-3.4648-1.5547zm-7.8398 21.691-0.15625 0.56836-4e-3 0.0215-6e-3 0.0195-0.7207 2.8672-6e-3 0.0215-4e-3 0.0234-0.65429 2.8828-4e-3 0.0195-4e-3 0.0215-0.21875 1.0762 3.7246 0.75586 0.20899-1.0352 0.64453-2.8398 0.0117-0.043 0.69726-2.7832 2e-3 -6e-3 8e-3 -0.0371 0.14453-0.52539-3.6641-1.0078zm-3.9805 22.773-0.12305 1.4668-2e-3 0.0215v0.0234l-0.17578 2.9648-2e-3 0.0234v0.0234l-0.10547 2.9726-2e-3 0.0234v0.0215l-4e-3 0.18554 3.8008 0.041 2e-3 -0.13672 2e-3 -0.0469 0.10157-2.8809v-8e-3l2e-3 -0.0391 0.16992-2.873 4e-3 -0.0371v-0.01l0.11914-1.4199-3.7871-0.31641zm3.9961 22.711-3.7773 0.42773 0.28906 2.5781 4e-3 0.0234 4e-3 0.0215 0.41602 2.998 2e-3 0.0254 4e-3 0.0234 0.32031 1.9531 3.748-0.61523-0.31055-1.9082-6e-3 -0.0254-2e-3 -0.0195-0.40235-2.9043-6e-3 -0.0469-0.2832-2.5312zm4.418 21.988-3.6426 1.0879 0.35547 1.1914 0.01 0.0234 6e-3 0.0215 0.9707 2.9726 8e-3 0.0215 0.01 0.0215 0.88086 2.4883 8e-3 0.0195 0.01 0.0215 0.2129 0.55664 3.5469-1.3574-0.19531-0.51367-6e-3 -0.0117-0.0117-0.0312-0.86524-2.4414-0.9414-2.8789-8e-3 -0.0273-8e-3 -0.0215-0.33984-1.1426zm181.9 7.8027-0.11914 1.1934-0.21875 1.7324-2e-3 6e-3 -0.28515 1.8242-0.31446 1.7188-8e-3 0.0391-2e-3 0.0117-0.16406 0.77735 3.7168 0.78515 0.17774-0.82617 6e-3 -0.0273 4e-3 -0.0234 0.33399-1.8203 4e-3 -0.0254 4e-3 -0.0273 0.28516-1.8262 2e-3 -0.0273 4e-3 -0.0254 0.23437-1.8379 4e-3 -0.0274v-0.0254l0.11718-1.1934-3.7793-0.375zm-173.34 12.84-3.3223 1.8496 1.2578 2.2578 0.0117 0.0215 0.01 0.0195 1.3262 2.2559 0.0117 0.0176 0.01 0.0195 1.2598 2.0371 3.2324-2-1.2383-1.998-0.01-0.0195-0.0137-0.0195-1.2793-2.1797-0.0137-0.0234-8e-3 -0.0137-1.2344-2.2246zm167.64 8.541-0.24024 0.56446-1.5762 3.2695-1.5156 2.7891 3.3398 1.8144 1.5332-2.8242 0.0234-0.0391 0.0176-0.041 1.623-3.3633 0.0215-0.0391 0.0176-0.0449 0.25391-0.59961-3.498-1.4863zm-155.05 9.998-2.9277 2.4199 0.42773 0.51953 0.0137 0.0156 0.0137 0.0156 1.7012 1.9688 0.0156 0.0156 0.0137 0.0156 1.7461 1.9277 0.0137 0.0156 0.0137 0.0176 1.1875 1.252 2.7598-2.6133-1.1602-1.2226-0.0273-0.0312-1.6875-1.8633-0.0195-0.0215-0.01-0.01-1.6445-1.9043-0.0273-0.0312-0.40234-0.48633zm143.25 8.7988-0.2207 0.27344-2.4668 2.7773-0.0156 0.0176-2.3281 2.3965 2.7266 2.6465 2.3848-2.459 0.0312-0.0293 0.0274-0.0332 2.5137-2.8301 0.0273-0.0312 0.0273-0.0332 0.24415-0.30273-2.9512-2.3926zm-127.27 6.8691-2.3809 2.9629 0.93945 0.75586 0.0176 0.0137 0.0176 0.0137 2.0469 1.5703 0.0176 0.0137 0.0176 0.0117 2.082 1.5215 0.0176 0.0137 0.0176 0.0137 1.0117 0.70508 2.1719-3.1191-0.97656-0.67969-0.0371-0.0254-2.043-1.498-1.9805-1.5176-0.01-8e-3 -0.0234-0.0176-0.90625-0.73047zm110.82 8.0781-0.27149 0.19336-3.0762 2.0039-0.0176 0.01-2.9336 1.7246 1.9277 3.2754 2.9492-1.7324 0.0371-0.0215 0.0371-0.0234 3.1894-2.0781 0.0352-0.0215 0.0351-0.0254 0.30274-0.21875-2.2148-3.0859zm-92.045 4.0703-1.7129 3.3906 1.373 0.69336 0.0195 0.01 0.0215 0.01 2.3086 1.0977 0.0215 0.01 0.0215 0.01 2.334 1.0391 0.0215 0.01 0.0215 0.01 0.875 0.36719 1.4629-3.5117-0.87891-0.36523-2.248-1.002-0.0156-6e-3 -0.0273-0.0117-2.2656-1.0781-1.332-0.67187zm72.248 5.8828-1.9336 0.64453-2.541 0.76758-0.0176 4e-3 -0.0371 0.0117-2.4883 0.66992-0.0137 4e-3 -0.041 0.0117-0.0469 0.01 0.88086 3.6953 0.0996-0.0234 0.0273-6e-3 0.0274-0.01 2.5976-0.69922 0.0254-6e-3 0.0273-8e-3 2.5957-0.78321 0.0254-6e-3 0.0273-0.01 1.9883-0.66407-1.2031-3.6035zm-51.355 1.9844-0.91406 3.6895 1.6426 0.40625 0.0254 4e-3 0.0234 8e-3 2.4863 0.54687 0.0254 4e-3 0.0273 6e-3 2.502 0.48047 0.0234 4e-3 0.0254 6e-3 0.80078 0.13086 0.61914-3.748-0.75195-0.125-2.5039-0.48047v2e-3l-2.3906-0.52735-0.0234-6e-3 -0.0234-4e-3 -1.5938-0.39649zm29.527 2.5586-0.50196 0.043-2.4805 0.14648-2.5293 0.0781-0.0215 2e-3h-0.0312l-1.8633 4e-3 8e-3 3.7988 1.918-4e-3h0.0254l0.0293-2e-3 2.582-0.0781 0.0254-2e-3h0.0293l2.5879-0.1543 0.0273-2e-3 0.0254-2e-3 0.50391-0.0449-0.33398-3.7832z" color="#000000" color-rendering="auto" fill="#fff" image-rendering="auto" solid-color="#000000" style="block-progression:tb;isolation:auto;mix-blend-mode:normal;text-decoration-color:#000000;text-decoration-line:none;text-decoration-style:solid;text-indent:0;text-transform:none;white-space:normal"/>
  </g>
 </g>
</svg>
